<mxfile host="app.diagrams.net" modified="2021-11-13T14:14:28.737Z" agent="5.0 (Windows)" etag="9L2S2yPcQ2PTtmbrlBSf" version="15.5.9" type="github">
  <diagram id="C5RBs43oDa-KdzZeNtuy" name="Page-1">
    <mxGraphModel dx="1673" dy="931" grid="1" gridSize="10" guides="1" tooltips="1" connect="1" arrows="1" fold="1" page="1" pageScale="1" pageWidth="827" pageHeight="1169" math="0" shadow="0">
      <root>
        <mxCell id="WIyWlLk6GJQsqaUBKTNV-0" />
        <mxCell id="WIyWlLk6GJQsqaUBKTNV-1" parent="WIyWlLk6GJQsqaUBKTNV-0" />
        <mxCell id="WFhRwt8FvtZSL98cEws3-0" value="A" style="verticalLabelPosition=middle;shadow=0;dashed=0;align=center;html=1;verticalAlign=middle;strokeWidth=1;shape=ellipse;aspect=fixed;fontSize=50;" vertex="1" parent="WIyWlLk6GJQsqaUBKTNV-1">
          <mxGeometry x="600" y="520" width="60" height="60" as="geometry" />
        </mxCell>
        <mxCell id="WFhRwt8FvtZSL98cEws3-1" value="V" style="verticalLabelPosition=middle;shadow=0;dashed=0;align=center;html=1;verticalAlign=middle;strokeWidth=1;shape=ellipse;aspect=fixed;fontSize=50;" vertex="1" parent="WIyWlLk6GJQsqaUBKTNV-1">
          <mxGeometry x="400" y="520" width="60" height="60" as="geometry" />
        </mxCell>
        <mxCell id="WFhRwt8FvtZSL98cEws3-3" style="edgeStyle=orthogonalEdgeStyle;rounded=0;orthogonalLoop=1;jettySize=auto;html=1;endArrow=none;endFill=0;" edge="1" parent="WIyWlLk6GJQsqaUBKTNV-1" source="WFhRwt8FvtZSL98cEws3-2" target="WFhRwt8FvtZSL98cEws3-0">
          <mxGeometry relative="1" as="geometry" />
        </mxCell>
        <mxCell id="WFhRwt8FvtZSL98cEws3-2" value="" style="pointerEvents=1;verticalLabelPosition=bottom;shadow=0;dashed=0;align=center;html=1;verticalAlign=top;shape=mxgraph.electrical.resistors.resistor_1;" vertex="1" parent="WIyWlLk6GJQsqaUBKTNV-1">
          <mxGeometry x="470" y="370" width="100" height="20" as="geometry" />
        </mxCell>
        <mxCell id="WFhRwt8FvtZSL98cEws3-8" style="edgeStyle=orthogonalEdgeStyle;rounded=0;orthogonalLoop=1;jettySize=auto;html=1;exitX=1;exitY=0.5;exitDx=0;exitDy=0;exitPerimeter=0;endArrow=none;endFill=0;" edge="1" parent="WIyWlLk6GJQsqaUBKTNV-1" source="WFhRwt8FvtZSL98cEws3-5" target="WFhRwt8FvtZSL98cEws3-2">
          <mxGeometry relative="1" as="geometry" />
        </mxCell>
        <mxCell id="WFhRwt8FvtZSL98cEws3-5" value="" style="verticalLabelPosition=bottom;shadow=0;dashed=0;align=center;fillColor=#000000;html=1;verticalAlign=top;strokeWidth=1;shape=mxgraph.electrical.miscellaneous.monocell_battery;" vertex="1" parent="WIyWlLk6GJQsqaUBKTNV-1">
          <mxGeometry x="290" y="350" width="100" height="60" as="geometry" />
        </mxCell>
        <mxCell id="WFhRwt8FvtZSL98cEws3-7" value="" style="endArrow=block;html=1;rounded=0;fontSize=20;strokeWidth=2;endFill=1;" edge="1" parent="WIyWlLk6GJQsqaUBKTNV-1">
          <mxGeometry width="50" height="50" relative="1" as="geometry">
            <mxPoint x="309" y="408" as="sourcePoint" />
            <mxPoint x="369" y="350" as="targetPoint" />
          </mxGeometry>
        </mxCell>
      </root>
    </mxGraphModel>
  </diagram>
</mxfile>
